<svg width="32" height="32" viewBox="0 0 32 32" fill="none" xmlns="http://www.w3.org/2000/svg">
<g clip-path="url(#clip0_634_18)">
<path fill-rule="evenodd" clip-rule="evenodd" d="M30.3289 6.44575C30.8253 6.94543 31.1819 7.56676 31.3628 8.24754C32.0319 10.7603 32.0319 16.0003 32.0319 16.0003C32.0319 16.0003 32.0319 21.2403 31.3628 23.753C31.1819 24.4338 30.8253 25.0551 30.3289 25.5548C29.8324 26.0545 29.2133 26.415 28.5337 26.6003C26.0319 27.273 16.0319 27.273 16.0319 27.273C16.0319 27.273 6.0319 27.273 3.53008 26.6003C2.85048 26.415 2.23145 26.0545 1.73495 25.5548C1.23846 25.0551 0.88191 24.4338 0.700993 23.753C0.0319023 21.2403 0.0319023 16.0003 0.0319023 16.0003C0.0319023 16.0003 0.0319023 10.7603 0.700993 8.24754C0.88191 7.56676 1.23846 6.94543 1.73495 6.44575C2.23145 5.94606 2.85048 5.58554 3.53008 5.40027C6.0319 4.72754 16.0319 4.72754 16.0319 4.72754C16.0319 4.72754 26.0319 4.72754 28.5337 5.40027C29.2133 5.58554 29.8324 5.94606 30.3289 6.44575ZM21.1227 16.0003L12.7591 11.2421V20.7585L21.1227 16.0003Z" fill="#F2F2F2"/>
</g>
<defs>
<clipPath id="clip0_634_18">
<rect width="32" height="32" fill="white"/>
</clipPath>
</defs>
</svg>
